<svg xmlns="http://www.w3.org/2000/svg" xmlns:xlink="http://www.w3.org/1999/xlink" viewBox="0 0 1280 720">
  <defs>
    <marker id="g" orient="auto" overflow="visible" refX="0" refY="0">
      <path fill="green" fill-rule="evenodd" stroke="green" stroke-width=".2pt" d="M-1.154 0l1.73-1v2l-1.73-1z"/>
    </marker>
    <marker id="h" orient="auto" overflow="visible" refX="0" refY="0">
      <path fill="green" fill-rule="evenodd" stroke="green" stroke-width=".2pt" d="M1.154 0l-1.73 1v-2l1.73 1z"/>
    </marker>
    <marker id="o" orient="auto" overflow="visible" refX="0" refY="0">
      <path fill="navy" fill-rule="evenodd" stroke="navy" stroke-width=".2pt" d="M-1.154 0l1.73-1v2l-1.73-1z"/>
    </marker>
    <marker id="p" orient="auto" overflow="visible" refX="0" refY="0">
      <path fill="navy" fill-rule="evenodd" stroke="navy" stroke-width=".2pt" d="M1.154 0l-1.73 1v-2l1.73 1z"/>
    </marker>
    <marker id="m" orient="auto" overflow="visible" refX="0" refY="0">
      <path fill="navy" fill-rule="evenodd" stroke="navy" stroke-width=".2pt" d="M-1.154 0l1.73-1v2l-1.73-1z"/>
    </marker>
    <marker id="n" orient="auto" overflow="visible" refX="0" refY="0">
      <path fill="navy" fill-rule="evenodd" stroke="navy" stroke-width=".2pt" d="M1.154 0l-1.73 1v-2l1.73 1z"/>
    </marker>
    <marker id="q" orient="auto" overflow="visible" refX="0" refY="0">
      <path fill="green" fill-rule="evenodd" stroke="green" stroke-width=".2pt" d="M-1.154 0l1.73-1v2l-1.73-1z"/>
    </marker>
    <marker id="r" orient="auto" overflow="visible" refX="0" refY="0">
      <path fill="green" fill-rule="evenodd" stroke="green" stroke-width=".2pt" d="M1.154 0l-1.73 1v-2l1.73 1z"/>
    </marker>
    <marker id="e" orient="auto" overflow="visible" refX="0" refY="0">
      <path fill="#0197fd" fill-rule="evenodd" stroke="#0197fd" stroke-width=".2pt" d="M-1.154 0l1.73-1v2l-1.73-1z"/>
    </marker>
    <marker id="f" orient="auto" overflow="visible" refX="0" refY="0">
      <path fill="#0197fd" fill-rule="evenodd" stroke="#0197fd" stroke-width=".2pt" d="M1.154 0l-1.73 1v-2l1.73 1z"/>
    </marker>
    <marker id="s" orient="auto" overflow="visible" refX="0" refY="0">
      <path fill="#0197fd" fill-rule="evenodd" stroke="#0197fd" stroke-width=".2pt" d="M-1.154 0l1.73-1v2l-1.73-1z"/>
    </marker>
    <marker id="t" orient="auto" overflow="visible" refX="0" refY="0">
      <path fill="#0197fd" fill-rule="evenodd" stroke="#0197fd" stroke-width=".2pt" d="M1.154 0l-1.73 1v-2l1.73 1z"/>
    </marker>
    <marker id="d" orient="auto" overflow="visible" refX="0" refY="0">
      <path fill="#0197fd" fill-rule="evenodd" stroke="#0197fd" stroke-width=".2pt" d="M-1.154 0l1.73-1v2l-1.73-1z"/>
    </marker>
    <marker id="c" orient="auto" overflow="visible" refX="0" refY="0">
      <path fill="#0197fd" fill-rule="evenodd" stroke="#0197fd" stroke-width=".2pt" d="M1.154 0l-1.73 1v-2l1.73 1z"/>
    </marker>
    <marker id="v" orient="auto" overflow="visible" refX="0" refY="0">
      <path fill="#0197fd" fill-rule="evenodd" stroke="#0197fd" stroke-width=".2pt" d="M-1.154 0l1.73-1v2l-1.73-1z"/>
    </marker>
    <marker id="u" orient="auto" overflow="visible" refX="0" refY="0">
      <path fill="#0197fd" fill-rule="evenodd" stroke="#0197fd" stroke-width=".2pt" d="M1.154 0l-1.73 1v-2l1.73 1z"/>
    </marker>
    <marker id="b" orient="auto" overflow="visible" refX="0" refY="0">
      <path fill="#0197fd" fill-rule="evenodd" stroke="#0197fd" stroke-width=".2pt" d="M-1.154 0l1.73-1v2l-1.73-1z"/>
    </marker>
    <marker id="a" orient="auto" overflow="visible" refX="0" refY="0">
      <path fill="#0197fd" fill-rule="evenodd" stroke="#0197fd" stroke-width=".2pt" d="M1.154 0l-1.73 1v-2l1.73 1z"/>
    </marker>
    <marker id="j" orient="auto" overflow="visible" refX="0" refY="0">
      <path fill="#0197fd" fill-rule="evenodd" stroke="#0197fd" stroke-width=".2pt" d="M-1.154 0l1.73-1v2l-1.73-1z"/>
    </marker>
    <marker id="i" orient="auto" overflow="visible" refX="0" refY="0">
      <path fill="#0197fd" fill-rule="evenodd" stroke="#0197fd" stroke-width=".2pt" d="M1.154 0l-1.73 1v-2l1.73 1z"/>
    </marker>
    <marker id="l" orient="auto" overflow="visible" refX="0" refY="0">
      <path fill="#0197fd" fill-rule="evenodd" stroke="#0197fd" stroke-width=".2pt" d="M-1.154 0l1.73-1v2l-1.73-1z"/>
    </marker>
    <marker id="k" orient="auto" overflow="visible" refX="0" refY="0">
      <path fill="#0197fd" fill-rule="evenodd" stroke="#0197fd" stroke-width=".2pt" d="M1.154 0l-1.73 1v-2l1.73 1z"/>
    </marker>
  </defs>
  <g transform="translate(254.908 370.066)">
    <rect width="740" height="75" x="285.092" y="-370.066" fill="#e9b96e" rx="18.031" ry="18.031"/>
    <rect width="1280" height="70" x="-254.908" y="219.934" fill="#c1504f" rx="18.031" ry="18.031"/>
    <rect width="660" height="150" x="180.092" y="-270.066" fill="#8e8ed7" rx="18.031" ry="18.031"/>
    <rect width="290" height="140" x="545.092" y="-265.066" fill="#504fc1" rx="18.031" ry="18.031"/>
    <rect width="280" height="80" x="550.092" y="-210.066" fill="#0197fd" rx="18.031" ry="18.031"/>
    <rect width="1280" height="25" x="-254.908" y="299.934" fill="#333" rx="0" ry="0"/>
    <rect width="150" height="50" x="50.092" y="229.934" fill="#0197fd" rx="18.031" ry="18.031"/>
    <rect width="230" height="90" x="10.092" y="99.934" fill="#0197fd" rx="18.031" ry="18.031"/>
    <rect width="280" height="25" x="290.092" y="-325.066" fill="#504fc1" rx="10" ry="10"/>
    <rect width="530" height="50" x="-254.908" y="-370.066" fill="#e9b96e" rx="18.031" ry="18.031"/>
    <rect width="530" height="165" x="-254.908" y="-90.066" fill="#8ed78e" rx="18.031" ry="18.031"/>
    <rect width="250" height="105" x="20.092" y="-85.066" fill="green" rx="18.031" ry="18.031"/>
    <rect width="240" height="155" x="-229.908" y="-85.066" fill="green" rx="18.031" ry="18.031"/>
    <rect width="130" height="40" x="-169.908" y="234.934" fill="#0197fd" rx="18.031" ry="18.031"/>
    <rect width="1280" height="25" x="-254.908" y="324.934" fill="#0197fd" rx="0" ry="0"/>
    <rect width="280" height="25" x="740.092" y="-325.066" fill="#504fc1" rx="10" ry="10"/>
    <rect width="130" height="20" x="881.663" y="327.434" fill="#0ff" rx="6.25" ry="6.25"/>
    <rect width="280" height="37" x="550.092" y="-247.066" fill="#0197fd" rx="18.031" ry="18.031"/>
    <rect width="250" height="50" x="20.092" y="19.934" fill="green" rx="18.031" ry="18.031"/>
    <rect width="150" height="50" x="476.791" y="229.826" fill="#0197fd" rx="18.031" ry="18.031"/>
    <rect width="280" height="140" x="185.092" y="-265.066" fill="#504fc1" rx="18.031" ry="18.031"/>
    <rect width="150" height="100" x="310.092" y="-230.066" fill="#0197fd" rx="18.031" ry="18.031"/>
    <rect width="160" height="140" x="865.092" y="-265.066" fill="#8e8ed7" rx="18.031" ry="18.031"/>
  </g>
  <g transform="translate(255 210)">
    <path fill="none" stroke="#0197fd" stroke-width="5" marker-end="url(#a)" marker-start="url(#b)" d="M125 239.931v15.137"/>
    <path fill="none" stroke="#0197fd" stroke-width="5" marker-end="url(#c)" marker-start="url(#d)" d="M125 354.536v29.963"/>
    <path fill="none" stroke="#0197fd" stroke-width="5" marker-end="url(#f)" marker-start="url(#e)" d="M544.054.019h-23.75v312.153H245.355"/>
    <path fill="none" stroke="green" stroke-width="5" marker-end="url(#h)" marker-start="url(#g)" d="M10-153.8V63.431"/>
    <path fill="none" stroke="#0197fd" stroke-width="5" marker-end="url(#i)" marker-start="url(#j)" d="M-105 227.477v158.381"/>
    <path fill="none" stroke="#0197fd" stroke-width="5" marker-end="url(#k)" marker-start="url(#l)" d="M-105 440.19v39.286"/>
    <path fill="none" stroke="navy" stroke-width="5" marker-end="url(#n)" marker-start="url(#m)" d="M415-135.985v21.97"/>
    <path fill="none" stroke="navy" stroke-width="5" marker-end="url(#p)" marker-start="url(#o)" d="M793.582-133.605v21.97"/>
    <path fill="none" stroke="green" stroke-width="5" marker-end="url(#r)" marker-start="url(#q)" d="M385.032-131.558v12.348H161.255V63.47"/>
    <path fill="none" stroke="#0197fd" stroke-width="5" marker-end="url(#t)" marker-start="url(#s)" d="M551.699 46.395v337.047"/>
    <path id="w" fill="none" stroke="#0197fd" stroke-dasharray="none" stroke-linecap="butt" stroke-linejoin="miter" stroke-miterlimit="4" stroke-opacity="1" stroke-width="5" marker-end="url(#u)" marker-start="url(#v)" d="M125 445.292v32.991" display="inline"/>
    <path fill="none" stroke="green" stroke-width="5" marker-end="url(#r)" marker-start="url(#q)" d="M366.875 41.395v12.098H186.848v10.5"/>
    <path fill="none" stroke="navy" stroke-width="5" marker-end="url(#p)" marker-start="url(#o)" d="M858.183-38.504h-16.366"/>
    <use width="1280" height="720" transform="translate(426.699 .994)" xlink:href="#w"/>
  </g>
  <text style="line-height:125%" x="27.248" y="-72.382" fill="#fff" font-size="16" font-weight="400" letter-spacing="0" transform="translate(254.908 370.066)" word-spacing="0"><tspan x="27.248" y="-72.382" font-size="13"><tspan font-weight="700">Mesa</tspan>:APIs+DRI/Gallium3D driver</tspan><tspan x="27.248" y="-54.882" font-size="14" font-weight="700">libGL-mesa-swx11 <tspan font-weight="400">(libGL)</tspan></tspan><tspan x="27.248" y="-37.382" font-size="14" font-weight="700">libGL-mesa-glx</tspan><tspan x="27.248" y="-19.882" font-size="14" font-weight="700">libOpenVG-mesa</tspan><tspan x="27.248" y="-2.382" font-size="14" font-weight="700">libGLES-mesa</tspan><tspan x="27.248" y="15.118" font-size="14" font-weight="700">libEGL-mesa</tspan><tspan x="27.248" y="32.618" font-size="14" font-weight="700">libEGL-mesa-drivers <tspan font-weight="400">(Wayland)</tspan></tspan><tspan x="27.248" y="50.118" font-size="14" font-weight="700">libGBM</tspan><tspan x="27.248" y="67.618" font-size="14" font-weight="700">libGL-mesa-DRI <tspan font-weight="400">(Modules)</tspan></tspan></text>
  <text style="line-height:125%" x="620.536" y="-250.266" font-size="16" font-weight="700" letter-spacing="0" transform="translate(254.908 370.066)" word-spacing="0"><tspan x="620.536" y="-250.266">X-server <tspan font-weight="600">(</tspan><tspan>X.Org)</tspan></tspan></text>
  <text style="text-align:start;line-height:125%" x="601.856" y="-191.913" fill="#fff" font-size="14" font-weight="400" letter-spacing="0" transform="translate(254.908 370.066)" word-spacing="0"><tspan style="text-align:start" x="601.856" y="-191.913">X.Org Server display driver</tspan><tspan style="text-align:start" x="601.856" y="-173.907" font-size="14" font-weight="700">xserver-xorg-video-nouveau</tspan><tspan style="text-align:start" x="601.856" y="-156.407" font-size="14" font-weight="700">xserver-xorg-video-nvidia</tspan><tspan style="text-align:start" x="601.856" y="-138.907" font-size="14" font-weight="700">xserver-xorg-video-radeon</tspan></text>
  <text style="line-height:125%" x="109.561" y="254.736" fill="#fff" font-size="14" font-weight="700" letter-spacing="0" transform="translate(254.908 370.066)" word-spacing="0"><tspan x="109.561" y="254.736">DRM</tspan></text>
  <text style="text-align:center;line-height:125%" x="821.302" y="263.136" fill="#fff" font-size="22" font-weight="700" letter-spacing="0" text-anchor="middle" transform="translate(254.908 370.066)" word-spacing="0"><tspan x="821.302" y="263.136">Linux kernel</tspan></text>
  <text x="53.376" y="120.866" style="line-height:125%" fill="#fff" font-size="16" font-weight="400" letter-spacing="0" transform="translate(254.908 370.066)" word-spacing="0"><tspan x="53.376" y="120.866" style="text-align:start" font-weight="700">libDRM-intel</tspan><tspan x="53.376" y="140.866" style="text-align:start" font-weight="700">libDRM-radeon</tspan><tspan x="53.376" y="160.866" style="text-align:start" font-weight="700">libDRM-nouveau</tspan><tspan x="53.376" y="180.866" style="text-align:start" font-weight="700">libDRM-freedreno</tspan></text>
  <text class="themed" x="275.561" y="84.085" style="line-height:125%" font-size="14" font-weight="400" letter-spacing="0" transform="translate(254.908 370.066)" word-spacing="0"><tspan x="275.561" y="84.085">hardware specific</tspan><tspan x="275.561" y="101.585">Userspace interface to</tspan><tspan x="275.561" y="119.085">hardware specific</tspan><tspan x="275.561" y="136.585">direct rendering manager</tspan></text>
  <text x="85.209" y="317.33" style="line-height:125%" fill="#fff" font-size="20" font-weight="700" letter-spacing="0" transform="translate(254.908 370.066)" word-spacing="0"><tspan x="85.209" y="317.33" font-size="18">CPU &amp; registers &amp; L1 &amp; L2 &amp; L3 &amp; L4 &amp; main memory</tspan></text>
  <text x="128.232" y="342.33" style="line-height:125%" fill="#fff" font-size="20" font-weight="700" letter-spacing="0" transform="translate(254.908 370.066)" word-spacing="0"><tspan x="128.232" y="342.33" font-size="18">GPU &amp; registers &amp; L1 &amp; L2 (&amp; graphic memory)</tspan></text>
  <text style="text-align:center;line-height:125%" x="655.565" y="-338.114" font-size="22" font-weight="700" letter-spacing="0" text-anchor="middle" transform="translate(254.908 370.066)" word-spacing="0"><tspan x="655.565" y="-338.114">Applications</tspan><tspan x="655.565" y="-310.614">Toolkits</tspan></text>
  <text style="line-height:125%" x="-176.86" y="36.25" fill="#fff" font-size="16" font-weight="700" letter-spacing="0" transform="rotate(-90 312.487 57.579)" word-spacing="0"><tspan style="text-align:start" x="-176.86" y="36.25">libDRM</tspan></text>
  <text x="-92.018" y="-339.082" style="line-height:125%" font-size="22" font-weight="700" letter-spacing="0" transform="translate(254.908 370.066)" word-spacing="0"><tspan x="-92.018" y="-339.082">3D-game engine</tspan></text>
  <text x="169.737" y="571.479" fill="#fff" font-size="16" font-weight="700" letter-spacing="0" text-anchor="middle" transform="rotate(-90 312.487 57.579)" style="text-align:center;line-height:125%" word-spacing="0"><tspan x="169.737" y="571.479" style="text-align:center">DDX-</tspan><tspan x="169.737" y="591.479" style="text-align:center">driver</tspan></text>
  <text x="825.292" y="-307.524" style="line-height:125%" fill="#fff" font-size="16" font-weight="400" letter-spacing="0" transform="translate(254.908 370.066)" word-spacing="0"><tspan x="825.292" y="-307.524" font-size="14" font-weight="700">libX / libXCB</tspan></text>
  <text x="-217.554" y="-21.17" style="line-height:125%" fill="#fff" font-size="16" font-weight="400" letter-spacing="0" transform="translate(254.908 370.066)" word-spacing="0"><tspan x="-217.554" y="-21.17" font-size="13">Proprietary OpenGL 4.2 driver</tspan><tspan  x="-215.554" y="-3.67" font-size="14" font-weight="700">libGL-nvidia-glx</tspan><tspan  x="-215.554" y="13.83" font-size="14" font-weight="700">libGL-fglrx-glx</tspan></text>
  <text style="line-height:125%" x="-15.782" y="-236.764" fill="green" font-size="16" font-weight="700" letter-spacing="0" transform="rotate(-90 312.487 57.579)" word-spacing="0"><tspan style="text-align:start" x="-15.782" y="-236.764">&quot;libGL&quot;</tspan></text>
  <text x="-9.819" y="-235.652" style="text-align:end;line-height:125%" fill="green" font-size="16" font-weight="400" letter-spacing="0" text-anchor="end" transform="translate(254.908 370.066)" word-spacing="0"><tspan x="-4.725" y="-235.652">Rendering APIs: </tspan><tspan x="-9.819" y="-215.652"><tspan style="text-align:end" font-weight="700">OpenGL</tspan></tspan><tspan x="-9.819" y="-195.652"><tspan style="text-align:end" font-weight="700">OpenGL|ES</tspan></tspan><tspan x="-9.819" y="-175.652"><tspan style="text-align:end" font-weight="700">OpenVG</tspan></tspan></text>
  <text style="line-height:125%" x="808.684" y="-279.241" fill="navy" font-size="16" font-weight="400" letter-spacing="0" transform="translate(254.908 370.066)" word-spacing="0"><tspan x="808.684" y="-279.241"><tspan font-weight="700">X 11R7.8</tspan></tspan></text>
  <text x="-122.428" y="260.154" style="line-height:125%" fill="#fff" font-size="14" font-weight="700" letter-spacing="0" transform="translate(254.908 370.066)" word-spacing="0"><tspan x="-122.428" y="260.154">blob</tspan></text>
  <text x="503.676" y="-201.222" style="text-align:center;line-height:125%" fill="#fff" font-size="16" font-weight="700" letter-spacing="0" text-anchor="middle" transform="translate(254.908 370.066)" word-spacing="0"><tspan x="503.676" y="-201.222" style="text-align:center">Display</tspan><tspan x="503.676" y="-181.222" style="text-align:center">server</tspan></text>
  <text style="line-height:125%" x="358.742" y="-308.324" fill="#fff" font-size="16" font-weight="400" letter-spacing="0" transform="translate(254.908 370.066)" word-spacing="0"><tspan x="358.742" y="-308.324" font-size="14" font-weight="700">libwayland-client</tspan></text>
  <text x="435.118" y="-278.714" style="line-height:125%" fill="navy" font-size="16" font-weight="400" letter-spacing="0" transform="translate(254.908 370.066)" word-spacing="0"><tspan x="435.118" y="-278.714"><tspan font-weight="700">Wayland 1.5</tspan></tspan></text>
  <text x="898.837" y="342.654" style="line-height:125%" font-size="16" font-weight="400" letter-spacing="0" transform="translate(254.908 370.066)" word-spacing="0"><tspan x="898.837" y="342.654" font-size="14">framebuffer</tspan></text>
  <text style="text-align:center;line-height:125%" x="689.436" y="-222.601" fill="#fff" font-size="16" font-weight="700" letter-spacing="0" text-anchor="middle" transform="translate(254.908 370.066)" word-spacing="0"><tspan style="text-align:center" x="689.436" y="-222.601">DIX driver</tspan></text>
  <text x="53.503" y="270.901" style="line-height:125%" font-size="22" font-weight="400" letter-spacing="0" transform="translate(254.908 370.066)" word-spacing="0"><tspan  x="53.503" y="270.901" fill="#fff" font-size="14">hardware-specific</tspan></text>
  <path fill="none" stroke="#000" d="M.5 577.5h1279"/>
  <text style="line-height:125%" x="-255.957" y="-382.556" font-size="12" font-weight="400" letter-spacing="0" transform="translate(254.908 370.066)" word-spacing="0"><tspan x="-255.957" y="-382.556">by Shmuel Csaba Otto Traian; CC-BY-SA 4.0 intl; created 2013-08-24; last updated 2014-03-25</tspan></text>
  <text x="538.587" y="251.409" style="line-height:125%" fill="#fff" font-size="14" font-weight="700" letter-spacing="0" transform="translate(254.908 370.066)" word-spacing="0"><tspan x="538.587" y="251.409">KMS</tspan></text>
  <text style="line-height:125%" x="552.125" y="270.839" font-size="22" font-weight="700" letter-spacing="0" transform="translate(254.908 370.066)" word-spacing="0"><tspan x="552.125" y="270.839" style="text-align:center" fill="#fff" font-size="12" font-weight="400" text-anchor="middle">Kernel Mode Setting</tspan></text>
  <text style="text-align:center;line-height:125%" x="384.885" y="-205.651" fill="#ccc" font-size="16" font-weight="400" letter-spacing="0" text-anchor="middle" transform="translate(254.908 370.066)" word-spacing="0"><tspan style="text-align:center" x="384.885" y="-205.651">Wayland</tspan><tspan style="text-align:center" x="384.885" y="-185.651">obsoletes</tspan><tspan style="text-align:center" x="384.885" y="-165.651">2D drivers in</tspan><tspan style="text-align:center" x="384.885" y="-145.651">display server</tspan></text>
  <text style="line-height:125%" x="196.344" y="-250.519" font-size="16" font-weight="700" letter-spacing="0" transform="translate(254.908 370.066)" word-spacing="0"><tspan x="196.344" y="-250.519">Wayland compositor</tspan></text>
  <text style="text-align:end;line-height:125%" x="150.628" y="-215.152" fill="green" font-size="16" font-weight="400" letter-spacing="0" text-anchor="end" transform="translate(254.908 370.066)" word-spacing="0"><tspan x="155.722" y="-215.152">API: </tspan><tspan style="text-align:end" x="150.628" y="-195.152" font-weight="700">EGL</tspan></text>
  <text x="329.376" y="-85.119" style="text-align:end;line-height:125%" fill="green" font-size="16" font-weight="400" letter-spacing="0" text-anchor="end" transform="translate(254.908 370.066)" word-spacing="0"><tspan x="334.469" y="-85.119">API: </tspan><tspan x="329.376" y="-65.119" style="text-align:end" font-weight="700">EGL</tspan></text>
  <text x="875.229" y="-243.73" style="line-height:125%" font-size="16" font-weight="700" letter-spacing="0" transform="translate(254.908 370.066)" word-spacing="0"><tspan x="875.229" y="-243.73" font-weight="600">Window manager</tspan></text>
  <text style="text-align:start;line-height:125%" x="195.519" y="-214.337" font-size="16" font-weight="400" letter-spacing="0" transform="translate(254.908 370.066)" word-spacing="-7.92"><tspan x="195.519" y="-214.337">KWin</tspan><tspan x="195.519" y="-194.337">Mutter</tspan><tspan x="195.519" y="-174.337">Weston</tspan><tspan x="195.519" y="-154.337">Enlightment</tspan></text>
  <text x="895.201" y="-219.286" style="text-align:start;line-height:125%" font-size="16" font-weight="400" letter-spacing="0" transform="translate(254.908 370.066)" word-spacing="-7.92"><tspan x="895.201" y="-219.286">KWin</tspan><tspan x="895.201" y="-199.286">Compiz</tspan><tspan x="895.201" y="-179.286">OpenBox</tspan><tspan x="895.201" y="-159.286">Metacity</tspan><tspan x="895.201" y="-139.286">Mutter</tspan></text>
</svg>
